<svg width="31" height="31" viewBox="0 0 31 31" fill="none" xmlns="http://www.w3.org/2000/svg">
<path d="M31 3.875H5.47925L5.425 3.42162C5.31398 2.47925 4.86104 1.61036 4.15205 0.9797C3.44306 0.349038 2.52731 0.000441483 1.57842 0L0 0V2.58333H1.57842C1.89479 2.58337 2.20014 2.69953 2.43656 2.90976C2.67298 3.11999 2.82403 3.40968 2.86104 3.72387L4.90833 21.12C5.01935 22.0624 5.47229 22.9313 6.18128 23.562C6.89027 24.1926 7.80602 24.5412 8.75492 24.5417H25.8333V21.9583H8.75492C8.43835 21.9583 8.13283 21.8419 7.89638 21.6314C7.65993 21.4209 7.50901 21.1309 7.47229 20.8165L7.30308 19.375H28.2048L31 3.875Z" fill="white"/>
<path d="M9.04159 31C10.4683 31 11.6249 29.8434 11.6249 28.4167C11.6249 26.99 10.4683 25.8334 9.04159 25.8334C7.61485 25.8334 6.45825 26.99 6.45825 28.4167C6.45825 29.8434 7.61485 31 9.04159 31Z" fill="white"/>
<path d="M21.9583 31C23.3851 31 24.5417 29.8434 24.5417 28.4167C24.5417 26.99 23.3851 25.8334 21.9583 25.8334C20.5316 25.8334 19.375 26.99 19.375 28.4167C19.375 29.8434 20.5316 31 21.9583 31Z" fill="white"/>
</svg>
