<svg width="29" height="29" viewBox="0 0 29 29" fill="none" xmlns="http://www.w3.org/2000/svg">
<path d="M1.60357 14.9834L5.90524 18.125L4.27157 23.1843C4.00756 23.969 4.00422 24.818 4.26203 25.6047C4.51985 26.3915 5.02502 27.0738 5.70224 27.55C6.36785 28.0416 7.17446 28.3049 8.00188 28.3008C8.8293 28.2966 9.63324 28.0252 10.2939 27.5271L14.5001 24.4313L18.7075 27.5235C19.3719 28.0122 20.1742 28.2776 20.999 28.2816C21.8238 28.2857 22.6286 28.028 23.2977 27.5458C23.9668 27.0636 24.4658 26.3816 24.723 25.598C24.9801 24.8143 24.9821 23.9692 24.7287 23.1843L23.095 18.125L27.3967 14.9834C28.0602 14.4982 28.5535 13.8158 28.806 13.0336C29.0585 12.2514 29.0574 11.4094 28.8028 10.6278C28.5481 9.84626 28.0531 9.16516 27.3882 8.68181C26.7234 8.19845 25.9228 7.93755 25.1008 7.93638H19.8168L18.2133 2.93871C17.9612 2.15204 17.4657 1.46577 16.7983 0.978875C16.131 0.491979 15.3262 0.229614 14.5001 0.229614C13.674 0.229614 12.8693 0.491979 12.2019 0.978875C11.5345 1.46577 11.0391 2.15204 10.7869 2.93871L9.18344 7.93638H3.90424C3.08226 7.93755 2.28168 8.19845 1.61684 8.68181C0.951997 9.16516 0.45691 9.84626 0.202291 10.6278C-0.0523282 11.4094 -0.0534551 12.2514 0.199071 13.0336C0.451597 13.8158 0.94486 14.4982 1.6084 14.9834H1.60357Z" fill="white"/>
</svg>
