<svg width="25" height="25" viewBox="0 0 25 25" fill="none" xmlns="http://www.w3.org/2000/svg">
<g clip-path="url(#clip0_7_18)">
<path d="M18.2292 0.9552C17.0562 0.973445 15.9088 1.30088 14.9029 1.90444C13.897 2.508 13.0681 3.36631 12.5 4.3927C11.932 3.36631 11.1031 2.508 10.0972 1.90444C9.09123 1.30088 7.94384 0.973445 6.77087 0.9552C4.90102 1.03644 3.13931 1.85442 1.87064 3.23044C0.601975 4.60646 -0.0705355 6.42866 3.79328e-05 8.29895C3.79328e-05 15.3562 11.4125 23.5073 11.898 23.8531L12.5 24.2792L13.1021 23.8531C13.5875 23.5094 25 15.3562 25 8.29895C25.0706 6.42866 24.3981 4.60646 23.1294 3.23044C21.8608 1.85442 20.0991 1.03644 18.2292 0.9552ZM12.5 21.7146C9.1115 19.1833 2.08337 12.9646 2.08337 8.29895C2.01216 6.98095 2.465 5.68825 3.34312 4.7028C4.22125 3.71736 5.45341 3.11911 6.77087 3.03853C8.08834 3.11911 9.3205 3.71736 10.1986 4.7028C11.0767 5.68825 11.5296 6.98095 11.4584 8.29895H13.5417C13.4705 6.98095 13.9233 5.68825 14.8015 4.7028C15.6796 3.71736 16.9117 3.11911 18.2292 3.03853C19.5467 3.11911 20.7788 3.71736 21.6569 4.7028C22.5351 5.68825 22.9879 6.98095 22.9167 8.29895C22.9167 12.9667 15.8886 19.1833 12.5 21.7146Z" fill="#93D83D"/>
</g>
<defs>
<clipPath id="clip0_7_18">
<rect width="25" height="25" fill="white"/>
</clipPath>
</defs>
</svg>
