<svg width="15" height="17" viewBox="0 0 15 17" fill="none" xmlns="http://www.w3.org/2000/svg">
<path d="M7.49996 0C5.62198 0.00206238 3.8215 0.749002 2.49356 2.07694C1.16563 3.40487 0.418688 5.20535 0.416626 7.08333C0.416626 10.8248 6.36663 15.9609 7.04238 16.5346L7.49996 16.9214L7.95754 16.5346C8.63329 15.9609 14.5833 10.8248 14.5833 7.08333C14.5812 5.20535 13.8343 3.40487 12.5064 2.07694C11.1784 0.749002 9.37794 0.00206238 7.49996 0V0ZM7.49996 10.625C6.79948 10.625 6.11474 10.4173 5.53232 10.0281C4.94989 9.63896 4.49595 9.08583 4.22789 8.43867C3.95983 7.79152 3.88969 7.07941 4.02635 6.39239C4.163 5.70537 4.50031 5.07431 4.99562 4.579C5.49093 4.08369 6.122 3.74638 6.80901 3.60972C7.49603 3.47306 8.20814 3.5432 8.8553 3.81126C9.50245 4.07932 10.0556 4.53327 10.4447 5.11569C10.8339 5.69811 11.0416 6.38286 11.0416 7.08333C11.0405 8.0223 10.667 8.92248 10.0031 9.58643C9.33911 10.2504 8.43892 10.6239 7.49996 10.625Z" fill="black"/>
<path d="M7.5 9.20837C8.6736 9.20837 9.625 8.25698 9.625 7.08337C9.625 5.90977 8.6736 4.95837 7.5 4.95837C6.32639 4.95837 5.375 5.90977 5.375 7.08337C5.375 8.25698 6.32639 9.20837 7.5 9.20837Z" fill="black"/>
</svg>
