<svg width="24" height="33" viewBox="0 0 24 33" fill="none" xmlns="http://www.w3.org/2000/svg">
<path d="M10.5 30.7427C10.5 31.5711 11.1716 32.2427 12 32.2427C12.8284 32.2427 13.5 31.5711 13.5 30.7427L10.5 30.7427ZM13.0607 0.682016C12.4749 0.0962296 11.5251 0.0962296 10.9393 0.682016L1.3934 10.228C0.807611 10.8137 0.807611 11.7635 1.3934 12.3493C1.97919 12.9351 2.92893 12.9351 3.51472 12.3493L12 3.864L20.4853 12.3493C21.0711 12.9351 22.0208 12.9351 22.6066 12.3493C23.1924 11.7635 23.1924 10.8137 22.6066 10.228L13.0607 0.682016ZM13.5 30.7427L13.5 1.74268L10.5 1.74268L10.5 30.7427L13.5 30.7427Z" fill="#F3E8D3"/>
</svg>
